# xmcd
#
# Track frame offsets:
#	150
#	7012
#	38129
#	61191
#	89190
#	109346
#	134293
#	149979
#	169005
#	188679
#	214053
#	224880
#	234830
#	240958
#	257165
#	305477
#	321799
#
# Disc length: 4672 seconds
#
# Revision: 1
# Processed by: cddbd v1.5.2PL0 Copyright (c) Steve Scherf et al.
# Submitted via: audiograbber 1.83.01
#
DISCID=01123e11
DTITLE=Grateful Dead - 70-11-07A Capitol Theatre, Port Chester NY
DYEAR=1900
DGENRE=
TTITLE0=Tuning
TTITLE1=Deep Elem Blues
TTITLE2=Monkey and The Engineer
TTITLE3=Big Railroad Blues
TTITLE4=Operator
TTITLE5=El Paso
TTITLE6=How Long Blues
TTITLE7=Ripple
TTITLE8=Brokedown Palace
TTITLE9=Uncle John's Band
TTITLE10=NRPS Truck Driving Man
TTITLE11=NRPS Together Again (instrumental)
TTITLE12=NRPS Sweet Loving One (false start)
TTITLE13=NRPS Sweet Loving One
TTITLE14=NRPS Dirty Business
TTITLE15=NRPS Henry
TTITLE16=NRPS Last Lonely Eagle
EXTD=
EXTT0=
EXTT1=
EXTT2=
EXTT3=
EXTT4=
EXTT5=
EXTT6=
EXTT7=
EXTT8=
EXTT9=
EXTT10=
EXTT11=
EXTT12=
EXTT13=
EXTT14=
EXTT15=
EXTT16=
PLAYORDER=
